<mxfile host="app.diagrams.net" modified="2022-12-05T07:38:15.277Z" agent="5.0 (Windows NT 10.0; Win64; x64) AppleWebKit/537.36 (KHTML, like Gecko) Chrome/108.0.0.0 Safari/537.36" version="20.6.0" etag="MKr1Tv-tKECi1oeFxy6T" type="github">
  <diagram id="enXE-PFYwU6dIyVUROc5" name="第 1 页">
    <mxGraphModel dx="576" dy="299" grid="1" gridSize="10" guides="1" tooltips="1" connect="1" arrows="1" fold="1" page="1" pageScale="1" pageWidth="827" pageHeight="1169" math="0" shadow="0">
      <root>
        <mxCell id="0" />
        <mxCell id="1" parent="0" />
        <mxCell id="0TqXWO_I3m_vTDatWwrz-1" value="" style="shape=image;imageAspect=0;aspect=fixed;verticalLabelPosition=bottom;verticalAlign=top;image=https://fastly.jsdelivr.net/gh/5huanghuai/Image@main/image/1670225811412PINO.png;" vertex="1" parent="1">
          <mxGeometry x="150" y="120" width="536.96" height="190" as="geometry" />
        </mxCell>
        <mxCell id="0TqXWO_I3m_vTDatWwrz-2" value="" style="rounded=0;whiteSpace=wrap;html=1;fillColor=none;strokeWidth=3;strokeColor=#FF3333;" vertex="1" parent="1">
          <mxGeometry x="160" y="120" width="530" height="100" as="geometry" />
        </mxCell>
        <mxCell id="0TqXWO_I3m_vTDatWwrz-3" value="" style="rounded=0;whiteSpace=wrap;html=1;fillColor=none;strokeWidth=3;strokeColor=#006633;" vertex="1" parent="1">
          <mxGeometry x="160" y="220" width="530" height="100" as="geometry" />
        </mxCell>
      </root>
    </mxGraphModel>
  </diagram>
</mxfile>
